<?xml version="1.0" encoding="utf-8"?><!-- Uploaded to: SVG Repo, www.svgrepo.com, Generator: SVG Repo Mixer Tools -->
<svg width="800px" height="800px" viewBox="0 0 24 24" fill="none" xmlns="http://www.w3.org/2000/svg">
<path d="M20.2322 5.18192L19.8787 5.53548L20.2322 5.88903L23.0607 8.71747C23.2559 8.91273 23.2559 9.22931 23.0607 9.42457L22.3536 10.1317C22.1583 10.3269 21.8417 10.3269 21.6465 10.1317L18.818 7.30324L18.4645 6.94969L18.1109 7.30324L15.2825 10.1317C15.0872 10.3269 14.7706 10.3269 14.5754 10.1317L13.8683 9.42457C13.673 9.22931 13.673 8.91273 13.8683 8.71747L16.6967 5.88903L17.0503 5.53548L16.6967 5.18192L13.8683 2.35351L13.5147 2.70706L13.8683 2.35351C13.673 2.15824 13.673 1.84166 13.8683 1.6464L13.5147 1.29285L13.8683 1.6464L14.5754 0.939293C14.7707 0.744031 15.0872 0.744031 15.2825 0.939293L18.1109 3.76771L18.4645 4.12126L18.818 3.76771L21.6464 0.939293C21.8417 0.744031 22.1583 0.744031 22.3536 0.939294L23.0607 1.6464C23.2559 1.84166 23.2559 2.15824 23.0607 2.35351L20.2322 5.18192ZM21.5 16.9866H21.4589V17.4866V19.4498C21.4589 20.6431 20.5469 21.5728 19.4581 21.4953C10.5862 20.8641 3.13372 13.4185 2.50464 4.50642C2.42741 3.4123 3.35719 2.49997 4.54522 2.49997H7.60606C8.13761 2.49997 8.61776 2.82026 8.8227 3.31314L10.1027 6.3914C10.3291 6.93599 10.1682 7.56472 9.70908 7.93277L8.9112 8.57239C8.38251 8.99622 8.18513 9.74453 8.51466 10.376C9.63934 12.5314 11.3012 14.3604 13.3223 15.6848C13.9662 16.1067 14.794 15.927 15.2495 15.3564L16.0809 14.315C16.4482 13.8549 17.0746 13.6945 17.6166 13.9208L20.6885 15.2034C21.1794 15.4084 21.5 15.8895 21.5 16.4238V16.9866Z" fill="#000000" stroke="#000000"/>
</svg>